<?xml version="1.0" encoding="us-ascii" standalone="no"?><svg xmlns="http://www.w3.org/2000/svg" xmlns:xlink="http://www.w3.org/1999/xlink" contentStyleType="text/css" height="544px" preserveAspectRatio="none" style="width:593px;height:544px;background:#FFFFFF;" version="1.1" viewBox="0 0 593 544" width="593px" zoomAndPan="magnify"><defs/><g><g id="cluster_##2"><polygon fill="none" points="16,16,26,6,404,6,404,237,394,247,16,247,16,16" style="stroke:#181818;stroke-width:1.0;"/><line style="stroke:#181818;stroke-width:1.0;" x1="394" x2="404" y1="16" y2="6"/><line style="stroke:#181818;stroke-width:1.0;" x1="16" x2="394" y1="16" y2="16"/><line style="stroke:#181818;stroke-width:1.0;" x1="394" x2="394" y1="16" y2="247"/></g><!--cluster Bot--><g id="cluster_Bot"><polygon fill="none" points="316,307,326,297,505,297,505,517,495,527,316,527,316,307" style="stroke:#181818;stroke-width:1.0;"/><line style="stroke:#181818;stroke-width:1.0;" x1="495" x2="505" y1="307" y2="297"/><line style="stroke:#181818;stroke-width:1.0;" x1="316" x2="495" y1="307" y2="307"/><line style="stroke:#181818;stroke-width:1.0;" x1="495" x2="495" y1="307" y2="527"/><text fill="#000000" font-family="sans-serif" font-size="14" font-weight="bold" lengthAdjust="spacing" textLength="24" x="394.5" y="324.5332">Bot</text></g><g id="cluster_##9"><polygon fill="none" points="444,177,454,167,576,167,576,237,566,247,444,247,444,177" style="stroke:#181818;stroke-width:1.0;"/><line style="stroke:#181818;stroke-width:1.0;" x1="566" x2="576" y1="177" y2="167"/><line style="stroke:#181818;stroke-width:1.0;" x1="444" x2="566" y1="177" y2="177"/><line style="stroke:#181818;stroke-width:1.0;" x1="566" x2="566" y1="177" y2="247"/></g><!--entity User--><g id="elem_User"><ellipse cx="181" cy="39.5" fill="#F1F1F1" rx="16" ry="16" style="stroke:#181818;stroke-width:1.5;"/><path d="M181,59.5 C185,59.5 188,59.5 192,55.5 C200,55.5 208,63.5 208,71.5 L208,75.5 C208,79.5 204,83.5 200,83.5 L162,83.5 C158,83.5 154,79.5 154,75.5 L154,71.5 C154,63.5 162,55.5 170,55.5 C174,59.5 177,59.5 181,59.5 " fill="#F1F1F1" style="stroke:#181818;stroke-width:1.5;"/><text fill="#000000" font-family="sans-serif" font-size="14" lengthAdjust="spacing" textLength="29" x="166.5" y="99.5332">User</text></g><!--entity Discord--><g id="elem_Discord"><rect fill="#F1F1F1" height="47.6094" rx="2.5" ry="2.5" style="stroke:#181818;stroke-width:0.5;" width="88" x="52" y="183"/><rect fill="#F1F1F1" height="10" style="stroke:#181818;stroke-width:0.5;" width="15" x="120" y="188"/><rect fill="#F1F1F1" height="2" style="stroke:#181818;stroke-width:0.5;" width="4" x="118" y="190"/><rect fill="#F1F1F1" height="2" style="stroke:#181818;stroke-width:0.5;" width="4" x="118" y="194"/><text fill="#000000" font-family="sans-serif" font-size="14" lengthAdjust="spacing" textLength="48" x="67" y="217.5332">Discord</text></g><!--entity Backend--><g id="elem_Backend"><rect fill="#F1F1F1" height="47.6094" rx="2.5" ry="2.5" style="stroke:#181818;stroke-width:0.5;" width="95" x="362.5" y="338"/><rect fill="#F1F1F1" height="10" style="stroke:#181818;stroke-width:0.5;" width="15" x="437.5" y="343"/><rect fill="#F1F1F1" height="2" style="stroke:#181818;stroke-width:0.5;" width="4" x="435.5" y="345"/><rect fill="#F1F1F1" height="2" style="stroke:#181818;stroke-width:0.5;" width="4" x="435.5" y="349"/><text fill="#000000" font-family="sans-serif" font-size="14" lengthAdjust="spacing" textLength="55" x="377.5" y="372.5332">Backend</text></g><!--entity DB--><g id="elem_DB"><path d="M398.5,474 C398.5,464 418,464 418,464 C418,464 437.5,464 437.5,474 L437.5,500.6094 C437.5,510.6094 418,510.6094 418,510.6094 C418,510.6094 398.5,510.6094 398.5,500.6094 L398.5,474 " fill="#F1F1F1" style="stroke:#181818;stroke-width:0.5;"/><path d="M398.5,474 C398.5,484 418,484 418,484 C418,484 437.5,484 437.5,474 " fill="none" style="stroke:#181818;stroke-width:0.5;"/><text fill="#000000" font-family="sans-serif" font-size="14" lengthAdjust="spacing" textLength="19" x="408.5" y="502.5332">DB</text></g><!--entity ChatGPT--><g id="elem_ChatGPT"><rect fill="#F1F1F1" height="47.6094" rx="2.5" ry="2.5" style="stroke:#181818;stroke-width:0.5;" width="99" x="460.5" y="183"/><rect fill="#F1F1F1" height="10" style="stroke:#181818;stroke-width:0.5;" width="15" x="539.5" y="188"/><rect fill="#F1F1F1" height="2" style="stroke:#181818;stroke-width:0.5;" width="4" x="537.5" y="190"/><rect fill="#F1F1F1" height="2" style="stroke:#181818;stroke-width:0.5;" width="4" x="537.5" y="194"/><text fill="#000000" font-family="sans-serif" font-size="14" lengthAdjust="spacing" textLength="59" x="475.5" y="217.5332">ChatGPT</text></g><!--link User to Discord--><g id="link_User_Discord"><path d="M152.39,71.45 C124.24,80.98 82.81,99.94 64,133 C55.75,147.5 62.36,164.52 71.67,178.49 " fill="none" id="User-to-Discord" style="stroke:#181818;stroke-width:1.0;"/><polygon fill="#181818" points="74.63,182.72,72.7661,173.0491,71.7713,178.6178,66.2026,177.623,74.63,182.72" style="stroke:#181818;stroke-width:1.0;"/><text fill="#000000" font-family="sans-serif" font-size="13" lengthAdjust="spacing" textLength="186" x="65" y="147.4951">User Writes TeamKill Command</text></g><!--link Discord to User--><g id="link_Discord_User"><path d="M140.18,204.22 C177.84,200.08 229.89,187.58 256,151 C274.26,125.42 241.87,98.28 214.11,81.13 " fill="none" id="Discord-to-User" style="stroke:#181818;stroke-width:1.0;"/><polygon fill="#181818" points="209.7,78.47,215.3278,86.5526,213.9773,81.0593,219.4706,79.7089,209.7,78.47" style="stroke:#181818;stroke-width:1.0;"/><text fill="#000000" font-family="sans-serif" font-size="13" lengthAdjust="spacing" textLength="91" x="262" y="147.4951">Roast Message</text></g><!--link Discord to Backend--><g id="link_Discord_Backend"><path d="M79.54,231.13 C70.71,246.62 63.72,266.71 75,281 C109.6,324.83 272.04,347.29 357.36,356.23 " fill="none" id="Discord-to-Backend" style="stroke:#181818;stroke-width:1.0;"/><polygon fill="#181818" points="362.36,356.75,353.8194,351.8451,357.3865,356.2355,352.9962,359.8027,362.36,356.75" style="stroke:#181818;stroke-width:1.0;"/><text fill="#000000" font-family="sans-serif" font-size="13" lengthAdjust="spacing" textLength="230" x="76" y="277.4951">Discord send TeamKill Command to bot</text></g><!--link Backend to Discord--><g id="link_Backend_Discord"><path d="M392.54,337.62 C374.55,315.17 344.46,281.95 311,263 C258.87,233.47 190.74,219.52 145.28,213.12 " fill="none" id="Backend-to-Discord" style="stroke:#181818;stroke-width:1.0;"/><polygon fill="#181818" points="140.13,212.41,148.497,217.6055,145.0828,213.0951,149.5932,209.6809,140.13,212.41" style="stroke:#181818;stroke-width:1.0;"/><text fill="#000000" font-family="sans-serif" font-size="13" lengthAdjust="spacing" textLength="96" x="337" y="277.4951">Command Reply</text></g><!--link Backend to DB--><g id="link_Backend_DB"><path d="M380.89,386.14 C367.83,399.49 356.8,416.95 364,434 C370.21,448.7 382.77,461.31 394.21,470.49 " fill="none" id="Backend-to-DB" style="stroke:#181818;stroke-width:1.0;"/><polygon fill="#181818" points="398.36,473.71,393.7029,465.0318,394.4102,470.6442,388.7977,471.3515,398.36,473.71" style="stroke:#181818;stroke-width:1.0;"/><text fill="#000000" font-family="sans-serif" font-size="13" lengthAdjust="spacing" textLength="113" x="365" y="430.4951">Stores the team kill</text></g><!--link DB to Backend--><g id="link_DB_Backend"><path d="M437.78,477.38 C461.4,465.1 496.16,441.81 483,416 C477.65,405.5 469.13,396.59 459.78,389.25 " fill="none" id="DB-to-Backend" style="stroke:#181818;stroke-width:1.0;"/><polygon fill="#181818" points="455.73,386.2,460.4955,394.8191,459.718,389.216,465.3211,388.4384,455.73,386.2" style="stroke:#181818;stroke-width:1.0;"/></g><!--link Backend to ChatGPT--><g id="link_Backend_ChatGPT"><path d="M425.33,337.54 C443.23,310.15 472.82,264.89 491.85,235.77 " fill="none" id="Backend-to-ChatGPT" style="stroke:#181818;stroke-width:1.0;"/><polygon fill="#181818" points="494.81,231.24,486.5443,236.5951,492.0795,235.4286,493.2461,240.9639,494.81,231.24" style="stroke:#181818;stroke-width:1.0;"/></g><!--link ChatGPT to Backend--><g id="link_ChatGPT_Backend"><path d="M506.79,231.23 C503.99,246.2 498.91,265.66 490,281 C478.17,301.35 459.89,320.18 443.78,334.45 " fill="none" id="ChatGPT-to-Backend" style="stroke:#181818;stroke-width:1.0;"/><polygon fill="#181818" points="439.74,337.98,449.148,335.0663,443.5038,334.6885,443.8816,329.0443,439.74,337.98" style="stroke:#181818;stroke-width:1.0;"/><text fill="#000000" font-family="sans-serif" font-size="13" lengthAdjust="spacing" textLength="74" x="498" y="277.4951">Roast output</text></g><!--SRC=[PP1DZi8m38NtFeKlm0Mwc4Men68qqeWViK0itDOQgZPn5HiXXERkavPfWR9Buk-zvnTjwj1H98zKciIDNLj6kh2APmXICTvWcE1EEK8flfF0mV2GrrfAh8xm2tVGYINuYN1KDXmIKP5HGSgOkuc-mM5v8bjzRmU7tXqNYu-7RpOauZxMnefR9lzPjoqknNiA5KpSNJLcPVZ_ZfgkRp8qmK8C9dvGvox3JUgOSkp4Q4c4JL91xbxTPxf7W-aqtsOjf8PojkuyJtrgEcwtvgwzpghrlp3wVB4g_J3y0G00]--></g></svg>