<svg xmlns="http://www.w3.org/2000/svg" version="1.1" xmlns:xlink="http://www.w3.org/1999/xlink" width="1500" height="1500" viewBox="0 0 1500 1500"><rect width="1500" height="1500" x="0" y="0" id="background" stroke="transparent" fill="#d37be1"></rect><svg xml:space="preserve" width="1000" height="1000" data-version="2" data-id="lg_V75vaBnJsFvHjo8eMs" viewBox="0 0 558 70" x="250" y="250"><rect width="100%" height="100%" fill="transparent"></rect><path fill="#f3f2ee" d="M57.297.525q2.69 0 5.88 1.26 2.94 1.17 2.94 4.45v57.87q0 4.04-4.95 4.04-4.96 0-4.96-4.04v-43.17l-2.44-.25-3.36 10.92-10.08 33.6q-.92 2.94-4.53 2.85-1.6-.08-2.77-.84-1.18-.75-1.6-2.18l-6.05-19.57q-1.85-5.8-3.69-11.81-1.85-6-4.04-13.31l-2.43.34v43.42q0 4.04-4.96 4.04-4.95 0-4.95-4.04V6.235q0-3.19 2.94-4.45 3.1-1.26 5.96-1.18 1.26 0 2.6.34 1.35.33 2.52.96 1.18.63 2.1 1.6.93.96 1.43 2.22l13.19 44.94q1.43-4.95 3.02-10.75 1.6-5.79 3.28-11.76 1.68-5.96 3.32-11.8 1.64-5.84 3.06-10.88.51-1.17 1.43-2.1.93-.92 2.1-1.55 1.18-.63 2.48-.97 1.3-.33 2.56-.33"></path><rect width="60.81" height="67.62" x="-30.41" y="-33.81" fill="none" rx="0" ry="0" transform="translate(36.21 34.84)"></rect><path fill="#f3f2ee" d="m100.057 9.175-18.4 56.45v-.09q-.5 1.26-1.38 2.06-.89.8-2.15.8-.67 0-1.3-.13-.63-.12-1.3-.29h.08q-4.78-1.51-3.52-5.38l19.15-58.21q.42-1.34 1.47-2.27 1.05-.92 2.48-1.09 1.42-.25 2.77-.38 1.34-.12 2.1-.12.75 0 2.1.12 1.34.13 2.77.3 1.18.16 2.31 1.26 1.13 1.09 1.72 2.18 4.71 14.45 9.54 29.11 4.83 14.65 9.53 29.1 1.18 3.87-3.53 5.38-.67.17-1.22.29-.54.13-1.21.13-1.18 0-2.15-.8-.96-.8-1.38-2.06v.09Zm6.3 38.3q0 2.69-1.89 4.58-1.89 1.89-4.58 1.89-2.69 0-4.54-1.89-1.84-1.89-1.84-4.58 0-2.69 1.84-4.58 1.85-1.89 4.54-1.89t4.58 1.89q1.89 1.89 1.89 4.58"></path><rect width="57.31" height="67.87" x="-28.65" y="-33.94" fill="none" rx="0" ry="0" transform="translate(100.53 34.96)"></rect><path fill="#f3f2ee" d="M172.797 4.555q0-4.03 4.96-4.03 4.95 0 4.95 4.03v57.96q0 2.94-3.1 4.28h.08q-1.34.59-2.86.93-1.51.33-2.94.33-1.09 0-2.26-.21-1.18-.21-2.23-.67-1.05-.46-1.93-1.26-.88-.8-1.39-1.97l-18.23-45.45-2.26.25v45.36q0 4.04-5.04 4.04-4.96 0-4.96-4.04V6.235q0-3.45 3.02-4.62 2.78-1.09 5.88-1.09 2.19 0 4.41.88 2.23.88 3.41 3.32l18.14 45.52 2.35-.25Z"></path><rect width="47.12" height="67.62" x="-23.56" y="-33.81" fill="none" rx="0" ry="0" transform="translate(159.65 34.84)"></rect><path fill="#f3f2ee" d="M240.507 54.195q0 6.81-4.54 10.17-2.18 1.59-4.49 2.47-2.31.89-4.5.89h-18.31q-2.18 0-4.49-.89-2.31-.88-4.5-2.47-2.18-1.68-3.36-4.16-1.17-2.48-1.17-6.01V4.555q0-4.03 4.95-4.03 5.04 0 5.04 4.03v48.97q0 2.18 1.26 3.95 1.26 1.76 4.37 1.76h14.11q3.11 0 4.37-1.76 1.26-1.77 1.26-3.95V4.555q0-4.03 4.96-4.03 5.04 0 5.04 4.03Z"></path><rect width="45.36" height="67.2" x="-22.68" y="-33.6" fill="none" rx="0" ry="0" transform="translate(218.33 34.63)"></rect><path fill="#f3f2ee" d="M258.727 67.725q-3.1 0-4.2-1.6-1.09-1.6-1.09-3.53V5.985q0-1.94 1.09-3.49 1.1-1.55 4.2-1.55h29.24q3.1 0 3.27 4.2.17 4.28-3.27 4.28h-24.62v49.81h26.13q3.11 0 3.19 4.12.17 4.37-3.19 4.37Zm26.13-34.78q0 2.94-2.06 4.96-2.06 2.01-5 2.01-2.85 0-4.87-2.01-2.02-2.02-2.02-4.96t2.02-4.96q2.02-2.01 4.87-2.01 2.94 0 5 2.01 2.06 2.02 2.06 4.96"></path><rect width="39.29" height="66.78" x="-19.64" y="-33.39" fill="none" rx="0" ry="0" transform="translate(273.58 34.84)"></rect><path fill="#f3f2ee" d="M307.027 67.725q-3.1 0-4.2-1.6-1.09-1.6-1.09-3.53V4.555q0-4.03 4.87-4.03 5.04 0 5.04 4.03v54.68h28.06q3.02 0 3.02 4.12.17 4.37-3.02 4.37Z"></path><rect width="41.05" height="67.2" x="-20.52" y="-33.6" fill="none" rx="0" ry="0" transform="translate(322.76 34.63)"></rect><path fill="#f3f2ee" d="m372.547 9.175-18.39 56.45v-.09q-.51 1.26-1.39 2.06-.88.8-2.14.8-.67 0-1.3-.13-.63-.12-1.3-.29h.08q-4.79-1.51-3.53-5.38l19.15-58.21q.42-1.34 1.47-2.27 1.05-.92 2.48-1.09 1.43-.25 2.77-.38 1.35-.12 2.1-.12.76 0 2.1.12 1.35.13 2.78.3 1.17.16 2.31 1.26 1.13 1.09 1.72 2.18 4.7 14.45 9.53 29.11 4.83 14.65 9.54 29.1 1.17 3.87-3.53 5.38-.67.17-1.22.29-.55.13-1.22.13-1.17 0-2.14-.8-.97-.8-1.39-2.06v.09Zm6.3 38.3q0 2.69-1.89 4.58-1.89 1.89-4.57 1.89-2.69 0-4.54-1.89t-1.85-4.58q0-2.69 1.85-4.58 1.85-1.89 4.54-1.89 2.68 0 4.57 1.89 1.89 1.89 1.89 4.58"></path><rect width="57.31" height="67.87" x="-28.65" y="-33.94" fill="none" rx="0" ry="0" transform="translate(373.02 34.96)"></rect><path fill="#f3f2ee" d="M431.857 40.005h-6.47q-1.43 0-2.23-1.14-.79-1.13-.79-3.06 0-4.29 3.52-4.29h9.83q3.11 0 4.37-1.76 1.26-1.77 1.26-3.87v-10.83q0-2.1-1.26-3.87-1.26-1.76-4.37-1.76h-17.72v54.77q0 4.03-4.96 4.03-4.95 0-4.95-4.03V5.985q0-3.03 1.55-4.04 1.55-1 3.74-1h24.44q2.19 0 4.54.92t4.53 2.35h-.08q2.18 1.6 3.36 4.16 1.18 2.56 1.18 5.92v12.27q0 6.8-4.54 10.16-.92.67-1.97 1.26-1.05.59-2.15 1.18l13.44 22.17q.26.42.51 1.09.25.68.25 1.1 0 2.01-2.86 3.86v-.08q-1.93 1.17-3.27 1.17-1.93 0-3.11-1.93l.08.08Z"></path><rect width="48.8" height="67.53" x="-24.4" y="-33.77" fill="none" rx="0" ry="0" transform="translate(432.99 35.21)"></rect><path fill="#f3f2ee" d="M487.127 64.275q0 4.03-5.04 4.03-4.96 0-4.96-4.03V9.425h-14.7q-3.02 0-3.19-4.28 0-4.2 3.19-4.2h39.4q3.19 0 3.02 4.2 0 4.28-3.02 4.28h-14.7Z"></path><rect width="45.67" height="67.36" x="-22.83" y="-33.68" fill="none" rx="0" ry="0" transform="translate(482.57 35.13)"></rect><path fill="#f3f2ee" d="M517.707 67.725q-3.11 0-4.2-1.6-1.1-1.6-1.1-3.53V5.985q0-1.94 1.1-3.49 1.09-1.55 4.2-1.55h29.23q3.11 0 3.27 4.2.17 4.28-3.27 4.28h-24.61v49.81h26.12q3.11 0 3.19 4.12.17 4.37-3.19 4.37Zm26.12-34.78q0 2.94-2.06 4.96-2.06 2.01-5 2.01-2.85 0-4.87-2.01-2.01-2.02-2.01-4.96t2.01-4.96q2.02-2.01 4.87-2.01 2.94 0 5 2.01 2.06 2.02 2.06 4.96"></path><rect width="39.29" height="66.78" x="-19.64" y="-33.39" fill="none" rx="0" ry="0" transform="translate(532.55 34.84)"></rect></svg></svg>